<svg id="visual" viewBox="0 0 2560 1440" width="2560" height="1440" xmlns="http://www.w3.org/2000/svg" xmlns:xlink="http://www.w3.org/1999/xlink" version="1.1"><rect x="0" y="0" width="2560" height="1440" fill="#001220"></rect><path d="M0 1146L53.3 1115.5C106.7 1085 213.3 1024 320 996.7C426.7 969.3 533.3 975.7 640 992.3C746.7 1009 853.3 1036 960 1029.8C1066.7 1023.7 1173.3 984.3 1280 991.2C1386.7 998 1493.3 1051 1600 1087.2C1706.7 1123.3 1813.3 1142.7 1920 1122.2C2026.7 1101.7 2133.3 1041.3 2240 1022.8C2346.7 1004.3 2453.3 1027.7 2506.7 1039.3L2560 1051L2560 1441L2506.7 1441C2453.3 1441 2346.7 1441 2240 1441C2133.3 1441 2026.7 1441 1920 1441C1813.3 1441 1706.7 1441 1600 1441C1493.3 1441 1386.7 1441 1280 1441C1173.3 1441 1066.7 1441 960 1441C853.3 1441 746.7 1441 640 1441C533.3 1441 426.7 1441 320 1441C213.3 1441 106.7 1441 53.3 1441L0 1441Z" fill="#117226"></path><path d="M0 1051L53.3 1060.5C106.7 1070 213.3 1089 320 1118.8C426.7 1148.7 533.3 1189.3 640 1202.3C746.7 1215.3 853.3 1200.7 960 1179.8C1066.7 1159 1173.3 1132 1280 1118.7C1386.7 1105.3 1493.3 1105.7 1600 1109.2C1706.7 1112.7 1813.3 1119.3 1920 1134.7C2026.7 1150 2133.3 1174 2240 1184.8C2346.7 1195.7 2453.3 1193.3 2506.7 1192.2L2560 1191L2560 1441L2506.7 1441C2453.3 1441 2346.7 1441 2240 1441C2133.3 1441 2026.7 1441 1920 1441C1813.3 1441 1706.7 1441 1600 1441C1493.3 1441 1386.7 1441 1280 1441C1173.3 1441 1066.7 1441 960 1441C853.3 1441 746.7 1441 640 1441C533.3 1441 426.7 1441 320 1441C213.3 1441 106.7 1441 53.3 1441L0 1441Z" fill="#075713"></path><path d="M0 1190L53.3 1195.8C106.7 1201.7 213.3 1213.3 320 1211C426.7 1208.7 533.3 1192.3 640 1190.3C746.7 1188.3 853.3 1200.7 960 1214.3C1066.7 1228 1173.3 1243 1280 1238.7C1386.7 1234.3 1493.3 1210.7 1600 1203.3C1706.7 1196 1813.3 1205 1920 1216.5C2026.7 1228 2133.3 1242 2240 1256.2C2346.7 1270.3 2453.3 1284.7 2506.7 1291.8L2560 1299L2560 1441L2506.7 1441C2453.3 1441 2346.7 1441 2240 1441C2133.3 1441 2026.7 1441 1920 1441C1813.3 1441 1706.7 1441 1600 1441C1493.3 1441 1386.7 1441 1280 1441C1173.3 1441 1066.7 1441 960 1441C853.3 1441 746.7 1441 640 1441C533.3 1441 426.7 1441 320 1441C213.3 1441 106.7 1441 53.3 1441L0 1441Z" fill="#003e00"></path><path d="M0 1377L53.3 1365.3C106.7 1353.7 213.3 1330.3 320 1316.8C426.7 1303.3 533.3 1299.7 640 1300C746.7 1300.3 853.3 1304.7 960 1282.8C1066.7 1261 1173.3 1213 1280 1221.8C1386.7 1230.7 1493.3 1296.3 1600 1326C1706.7 1355.7 1813.3 1349.3 1920 1317.2C2026.7 1285 2133.3 1227 2240 1199.7C2346.7 1172.3 2453.3 1175.7 2506.7 1177.3L2560 1179L2560 1441L2506.7 1441C2453.3 1441 2346.7 1441 2240 1441C2133.3 1441 2026.7 1441 1920 1441C1813.3 1441 1706.7 1441 1600 1441C1493.3 1441 1386.7 1441 1280 1441C1173.3 1441 1066.7 1441 960 1441C853.3 1441 746.7 1441 640 1441C533.3 1441 426.7 1441 320 1441C213.3 1441 106.7 1441 53.3 1441L0 1441Z" fill="#002600"></path><path d="M0 1420L53.3 1408.2C106.7 1396.3 213.3 1372.7 320 1373.5C426.7 1374.3 533.3 1399.7 640 1393.2C746.7 1386.7 853.3 1348.3 960 1322C1066.7 1295.7 1173.3 1281.3 1280 1286.2C1386.7 1291 1493.3 1315 1600 1320.5C1706.7 1326 1813.3 1313 1920 1321C2026.7 1329 2133.3 1358 2240 1352.8C2346.7 1347.7 2453.3 1308.3 2506.7 1288.7L2560 1269L2560 1441L2506.7 1441C2453.3 1441 2346.7 1441 2240 1441C2133.3 1441 2026.7 1441 1920 1441C1813.3 1441 1706.7 1441 1600 1441C1493.3 1441 1386.7 1441 1280 1441C1173.3 1441 1066.7 1441 960 1441C853.3 1441 746.7 1441 640 1441C533.3 1441 426.7 1441 320 1441C213.3 1441 106.7 1441 53.3 1441L0 1441Z" fill="#000000"></path></svg>